<svg version="1.1" id="Layer_1" xmlns="http://www.w3.org/2000/svg" xmlns:xlink="http://www.w3.org/1999/xlink" x="0px" y="0px"
	 width="100%" viewBox="0 0 225 225" enable-background="new 0 0 225 225" xml:space="preserve">
<path fill="#F05237" opacity="1.000000" stroke="none" 
	d="
M101.000000,1.000000 
	C108.020950,1.000000 115.041893,1.000000 122.837830,1.259998 
	C125.590561,1.728176 127.578873,1.864818 129.544510,2.155031 
	C174.606903,8.808178 210.713303,41.176189 222.275696,85.321472 
	C223.636353,90.516418 224.764236,95.772339 226.000000,101.000000 
	C226.000000,109.020897 226.000000,117.041801 225.643860,125.712875 
	C218.033691,173.373154 192.124786,205.064529 147.150955,220.696503 
	C139.420135,223.383591 131.066132,224.277679 123.000000,226.000000 
	C115.979050,226.000000 108.958107,226.000000 101.289062,225.645203 
	C53.760612,218.061829 22.132095,192.261673 6.378713,147.445648 
	C3.945079,140.522324 2.761617,133.159546 1.000000,126.000000 
	C1.000000,117.979103 1.000000,109.958199 1.356079,101.287239 
	C7.718833,53.520466 40.167744,16.410175 85.766052,4.571116 
	C90.812881,3.260766 95.920547,2.184715 101.000000,1.000000 
M136.768570,136.239273 
	C136.660278,136.480606 136.675140,136.722687 136.844986,137.701523 
	C135.041245,145.737183 130.444290,151.690460 122.808655,154.667786 
	C113.535561,158.283600 104.912781,156.292419 97.110039,149.725876 
	C93.975639,153.119446 91.060005,156.276169 87.857155,159.743851 
	C98.138283,169.302963 110.225365,172.871506 123.915947,168.857468 
	C138.976654,164.441681 149.140198,154.215530 150.646179,138.595657 
	C152.139816,123.103882 151.991959,107.274216 150.730255,91.741699 
	C149.137924,72.139130 127.799103,56.732517 109.205238,60.246696 
	C87.823280,64.287811 74.090218,84.592728 78.162094,105.320190 
	C81.973488,124.721642 104.596161,141.020752 125.796120,134.997818 
	C125.796120,130.600815 125.796120,126.173241 125.796120,121.160385 
	C121.443657,121.160385 117.321121,121.254883 113.204201,121.142845 
	C100.318764,120.792175 90.385918,111.011055 90.014084,98.397377 
	C89.649902,86.043228 98.866112,75.486320 111.219086,74.107643 
	C123.607582,72.724998 134.582153,81.256805 136.746246,94.267746 
	C136.683624,94.524994 136.738815,94.763542 137.126846,95.901352 
	C137.051270,109.273598 136.975693,122.645851 136.768570,136.239273 
z"/>
<path fill="#FFFEFE" opacity="1.000000" stroke="none" 
	d="
M226.000000,100.531342 
	C224.764236,95.772339 223.636353,90.516418 222.275696,85.321472 
	C210.713303,41.176189 174.606903,8.808178 129.544510,2.155031 
	C127.578873,1.864818 125.590561,1.728176 123.306404,1.259998 
	C157.259186,1.000000 191.518372,1.000000 226.000000,1.000000 
	C226.000000,34.020561 226.000000,67.041626 226.000000,100.531342 
z"/>
<path fill="#FFFEFE" opacity="1.000000" stroke="none" 
	d="
M123.468658,226.000000 
	C131.066132,224.277679 139.420135,223.383591 147.150955,220.696503 
	C192.124786,205.064529 218.033691,173.373154 225.643860,126.181526 
	C226.000000,159.261353 226.000000,192.522690 226.000000,226.000000 
	C191.979416,226.000000 157.958359,226.000000 123.468658,226.000000 
z"/>
<path fill="#FFFEFE" opacity="1.000000" stroke="none" 
	d="
M100.531342,1.000000 
	C95.920547,2.184715 90.812881,3.260766 85.766052,4.571116 
	C40.167744,16.410175 7.718833,53.520466 1.356079,100.818588 
	C1.000000,67.739731 1.000000,34.479462 1.000000,1.000000 
	C34.020573,1.000000 67.041626,1.000000 100.531342,1.000000 
z"/>
<path fill="#FFFEFE" opacity="1.000000" stroke="none" 
	d="
M1.000000,126.468658 
	C2.761617,133.159546 3.945079,140.522324 6.378713,147.445648 
	C22.132095,192.261673 53.760612,218.061829 100.820480,225.645203 
	C67.739731,226.000000 34.479462,226.000000 1.000000,226.000000 
	C1.000000,192.979431 1.000000,159.958374 1.000000,126.468658 
z"/>
<path fill="#FFFBFA" opacity="1.000000" stroke="none" 
	d="
M136.843475,94.028435 
	C134.582153,81.256805 123.607582,72.724998 111.219086,74.107643 
	C98.866112,75.486320 89.649902,86.043228 90.014084,98.397377 
	C90.385918,111.011055 100.318764,120.792175 113.204201,121.142845 
	C117.321121,121.254883 121.443657,121.160385 125.796120,121.160385 
	C125.796120,126.173241 125.796120,130.600815 125.796120,134.997818 
	C104.596161,141.020752 81.973488,124.721642 78.162094,105.320190 
	C74.090218,84.592728 87.823280,64.287811 109.205238,60.246696 
	C127.799103,56.732517 149.137924,72.139130 150.730255,91.741699 
	C151.991959,107.274216 152.139816,123.103882 150.646179,138.595657 
	C149.140198,154.215530 138.976654,164.441681 123.915947,168.857468 
	C110.225365,172.871506 98.138283,169.302963 87.857155,159.743851 
	C91.060005,156.276169 93.975639,153.119446 97.110039,149.725876 
	C104.912781,156.292419 113.535561,158.283600 122.808655,154.667786 
	C130.444290,151.690460 135.041245,145.737183 136.908722,137.101990 
	C136.972473,136.502457 136.900116,136.018097 136.900116,136.018097 
	C136.975693,122.645851 137.051270,109.273598 137.052399,95.200035 
	C136.977936,94.498718 136.843475,94.028435 136.843475,94.028435 
z"/>
<path fill="#EF4523" opacity="1.000000" stroke="none" 
	d="
M136.794861,94.148087 
	C136.843475,94.028435 136.977936,94.498718 136.944885,94.741058 
	C136.738815,94.763542 136.683624,94.524994 136.794861,94.148087 
z"/>
<path fill="#EF4523" opacity="1.000000" stroke="none" 
	d="
M136.834351,136.128693 
	C136.900116,136.018097 136.972473,136.502457 136.892822,136.734009 
	C136.675140,136.722687 136.660278,136.480606 136.834351,136.128693 
z"/>
</svg>